Coordinates
version=1
nRows=16
nColumns=40
inDegrees=yes

Units are S.I. units (second, meters, Newtons, ...)
If the header above contains a line with 'inDegrees', this indicates whether rotational values are in degrees (yes) or radians (no).

endheader
time	pelvis_tilt	pelvis_list	pelvis_rotation	pelvis_tx	pelvis_ty	pelvis_tz	hip_flexion_r	hip_adduction_r	hip_rotation_r	knee_angle_r	knee_angle_r_beta	ankle_angle_r	subtalar_angle_r	mtp_angle_r	hip_flexion_l	hip_adduction_l	hip_rotation_l	knee_angle_l	knee_angle_l_beta	ankle_angle_l	subtalar_angle_l	mtp_angle_l	lumbar_extension	lumbar_bending	lumbar_rotation	arm_flex_r	arm_add_r	arm_rot_r	elbow_flex_r	pro_sup_r	wrist_flex_r	wrist_dev_r	arm_flex_l	arm_add_l	arm_rot_l	elbow_flex_l	pro_sup_l	wrist_flex_l	wrist_dev_l
      3.36000000	    -23.62907588	      1.00580907	      5.10845241	     -0.35964472	      0.86503149	     -0.73605304	     55.31612424	     -1.96058529	     -8.98814619	     58.69777897	      1.02446951	     13.47031164	      0.00000000	      0.00000000	     28.83193548	     -5.71343305	      4.30676326	     85.29528297	      1.48868352	     -8.24273730	      0.00000000	      0.00000000	     -2.42008902	      1.28237421	     -5.68736528	     89.88605281	     -4.03248115	     17.32730050	     37.96777910	     71.17762477	      0.00000000	      0.00000000	     89.81220682	     -7.62439166	     18.96914138	     38.32002263	     73.89558803	      0.00000000	      0.00000000
      3.36500000	    -23.77175666	      0.98049179	      5.03075005	     -0.35982594	      0.86384988	     -0.73604011	     55.62405644	     -1.90572717	     -8.96682856	     58.97276331	      1.02926889	     13.58559759	      0.00000000	      0.00000000	     28.94378684	     -5.77350600	      4.12455610	     85.31385520	      1.48900767	     -8.47723576	      0.00000000	      0.00000000	     -2.32914684	      1.33617068	     -5.58135726	     89.88603304	     -4.28575831	     17.71637260	     38.29229845	     73.08899484	      0.00000000	      0.00000000	     89.82590786	     -8.24442185	     20.69684972	     38.63958794	     76.21685414	      0.00000000	      0.00000000
      3.37000000	    -23.87761588	      0.82378707	      5.05763594	     -0.35996664	      0.86268047	     -0.73604016	     55.85732471	     -1.82621236	     -9.07435048	     59.19735928	      1.03318883	     13.70359992	      0.00000000	      0.00000000	     29.06196907	     -5.97471435	      4.30876464	     85.46658094	      1.49167324	     -8.28614489	      0.00000000	      0.00000000	     -2.26155514	      1.50743972	     -5.46544887	     89.88790843	     -4.57301692	     18.13182434	     38.48490015	     72.30184673	      0.00000000	      0.00000000	     89.82246209	     -8.04098747	     20.61482063	     38.66644641	     75.34373579	      0.00000000	      0.00000000
      3.37500000	    -23.95652197	      0.86241527	      5.08552521	     -0.36009886	      0.86165152	     -0.73622487	     56.09122297	     -1.89711738	     -9.02008020	     59.50414612	      1.03854327	     13.84643435	      0.00000000	      0.00000000	     29.06905251	     -5.90054894	      4.35525632	     85.45085740	      1.49139881	     -8.42313784	      0.00000000	      0.00000000	     -2.26401764	      1.47850143	     -5.44854536	     89.88856367	     -4.51291414	     17.17246885	     38.45597189	     76.70573685	      0.00000000	      0.00000000	     89.82071391	     -7.88177208	     19.87035381	     38.51658493	     79.50784249	      0.00000000	      0.00000000
      3.38000000	    -24.06611550	      0.82217604	      5.03069809	     -0.36025788	      0.86050606	     -0.73620356	     56.34254647	     -1.83900957	     -9.02503967	     59.75421162	      1.04290773	     13.99441760	      0.00000000	      0.00000000	     29.18300242	     -6.06208472	      4.09812502	     85.47435354	      1.49180890	     -7.48786868	      0.00000000	      0.00000000	     -2.20104905	      1.52971119	     -5.38866459	     89.88967215	     -4.50129664	     17.10150939	     38.49594985	     76.76456294	      0.00000000	      0.00000000	     89.82164399	     -7.87367392	     19.89159971	     38.51981621	     79.52217293	      0.00000000	      0.00000000
      3.38500000	    -24.11835041	      0.85752347	      5.02318962	     -0.36041589	      0.85947788	     -0.73628758	     56.54361915	     -1.85149314	     -8.91323616	     60.03258566	      1.04776628	     14.10126473	      0.00000000	      0.00000000	     29.15335087	     -5.92779060	      4.32426467	     85.57386415	      1.49354568	     -8.28371252	      0.00000000	      0.00000000	     -2.22685263	      1.51927860	     -5.33237003	     89.89034202	     -4.58169038	     16.98788248	     38.68510614	     76.39435159	      0.00000000	      0.00000000	     89.82225317	     -7.84872947	     19.99611355	     38.56060517	     79.16293843	      0.00000000	      0.00000000
      3.39000000	    -24.19650602	      0.82197638	      4.99508748	     -0.36059140	      0.85844221	     -0.73627992	     56.75487682	     -1.82594720	     -8.93916596	     60.26872762	      1.05188773	     14.23037347	      0.00000000	      0.00000000	     29.19694454	     -6.00660515	      4.30338038	     85.63421573	      1.49459902	     -8.24712574	      0.00000000	      0.00000000	     -2.22707709	      1.56928870	     -5.29079194	     89.89170855	     -4.49396654	     16.79429361	     38.69255178	     76.70856812	      0.00000000	      0.00000000	     89.82339177	     -7.84020168	     19.98635096	     38.57996800	     79.35353876	      0.00000000	      0.00000000
      3.39500000	    -24.32525914	      0.77749110	      5.04328725	     -0.36076241	      0.85742502	     -0.73645101	     56.99894170	     -1.86881305	     -9.00954673	     60.46557164	      1.05532331	     14.30985883	      0.00000000	      0.00000000	     29.35203607	     -6.04539292	      4.20144225	     85.61946817	      1.49434162	     -7.41403575	      0.00000000	      0.00000000	     -2.16398100	      1.63329032	     -5.27597349	     89.89338279	     -4.57226579	     17.25313839	     38.68594725	     76.27459175	      0.00000000	      0.00000000	     89.82278800	     -7.74525255	     19.87809601	     38.52604810	     79.57740160	      0.00000000	      0.00000000
      3.40000000	    -24.42325526	      0.81393621	      5.00635510	     -0.36093698	      0.85635670	     -0.73647634	     57.25469319	     -1.88943153	     -8.95456788	     60.78598322	      1.06091555	     14.52233966	      0.00000000	      0.00000000	     29.37339368	     -5.98085263	      4.34405671	     85.71974466	      1.49609178	     -8.26860666	      0.00000000	      0.00000000	     -2.11453297	      1.55258430	     -5.27470776	     89.89361400	     -4.59535782	     17.05921204	     38.95119802	     72.60332132	      0.00000000	      0.00000000	     89.82184998	     -7.47773419	     19.57969108	     38.33690306	     76.08914279	      0.00000000	      0.00000000
      3.40500000	    -24.52074066	      0.80587442	      4.97917040	     -0.36099760	      0.85526513	     -0.73652373	     57.47418058	     -1.86454254	     -8.89637691	     60.98026102	      1.06430633	     14.51721851	      0.00000000	      0.00000000	     29.40597818	     -5.97410237	      4.36190732	     85.73461918	      1.49635139	     -8.28466081	      0.00000000	      0.00000000	     -2.08938732	      1.62242369	     -5.20382427	     89.89416264	     -4.50725300	     16.51758777	     38.96976467	     76.64186913	      0.00000000	      0.00000000	     89.82394176	     -7.74490241	     19.95962354	     38.54757865	     79.57854588	      0.00000000	      0.00000000
      3.41000000	    -24.62334833	      0.78987637	      5.00581884	     -0.36127615	      0.85428716	     -0.73659011	     57.71220962	     -1.88634804	     -8.89099194	     61.20856474	      1.06829099	     14.65723606	      0.00000000	      0.00000000	     29.50545451	     -5.96121287	      4.42189885	     85.79832747	      1.49746331	     -8.29129012	      0.00000000	      0.00000000	     -2.05727116	      1.61394314	     -5.24798870	     89.89660785	     -4.62964096	     16.83412587	     39.11723198	     76.11419910	      0.00000000	      0.00000000	     89.82508424	     -7.67039111	     19.86994512	     38.47353719	     79.64024786	      0.00000000	      0.00000000
      3.41500000	    -24.75865411	      0.75975201	      5.03108066	     -0.36142315	      0.85333806	     -0.73664599	     57.95648665	     -1.89996705	     -8.91095995	     61.40348864	      1.07169305	     14.76114180	      0.00000000	      0.00000000	     29.62518020	     -5.93133144	      4.52340265	     85.84085125	      1.49820549	     -8.29186455	      0.00000000	      0.00000000	     -1.98677950	      1.65200417	     -5.15774333	     89.89898857	     -4.63593233	     16.85024571	     38.94793688	     75.07628340	      0.00000000	      0.00000000	     89.82594705	     -7.62308043	     20.24962087	     38.42691536	     78.86809722	      0.00000000	      0.00000000
      3.42000000	    -24.83522891	      0.73443528	      5.05768109	     -0.36165748	      0.85228881	     -0.73673737	     58.17752425	     -1.90363647	     -8.87849066	     61.66585537	      1.07627221	     14.91318033	      0.00000000	      0.00000000	     29.70720551	     -5.95923648	      4.53472598	     85.93488172	      1.49984663	     -8.22150654	      0.00000000	      0.00000000	     -1.97835642	      1.69223281	     -5.24077118	     89.89826550	     -4.77398186	     17.42628118	     39.48933844	     72.14635007	      0.00000000	      0.00000000	     89.82627544	     -7.65541915	     20.42665145	     38.54285085	     76.06511891	      0.00000000	      0.00000000
      3.42500000	    -24.89132226	      0.79172779	      5.02854580	     -0.36175228	      0.85125434	     -0.73673941	     58.37602605	     -1.92449150	     -8.78870681	     61.93383020	      1.08094926	     15.03046693	      0.00000000	      0.00000000	     29.71001456	     -5.88757737	      4.52115730	     85.99257754	      1.50085361	     -8.10997579	      0.00000000	      0.00000000	     -1.99712477	      1.64663418	     -5.27494814	     89.89904432	     -4.56516636	     16.50732705	     39.37496347	     75.86421766	      0.00000000	      0.00000000	     89.82653133	     -7.70536574	     19.98032087	     38.50801422	     79.44332795	      0.00000000	      0.00000000
      3.43000000	    -24.93336007	      0.75355177	      4.98016330	     -0.36181113	      0.85030084	     -0.73672417	     58.52236499	     -1.86475764	     -8.77440834	     62.12231409	      1.08423892	     15.14177919	      0.00000000	      0.00000000	     29.70874575	     -5.97893802	      4.45155695	     86.05848571	      1.50200392	     -7.93905154	      0.00000000	      0.00000000	     -2.02498212	      1.70371490	     -5.18994831	     89.90039631	     -4.54034683	     16.33658733	     39.46738582	     75.28732510	      0.00000000	      0.00000000	     89.82746574	     -7.70351713	     20.15488995	     38.51649315	     78.71493513	      0.00000000	      0.00000000
      3.43500000	    -25.02767142	      0.77326517	      5.07224715	     -0.36199925	      0.84937244	     -0.73693060	     58.76272361	     -1.98680635	     -8.80464550	     62.40270453	      1.08913266	     15.19557494	      0.00000000	      0.00000000	     29.80982103	     -5.85764833	      4.58018566	     86.10120306	      1.50274948	     -7.95874447	      0.00000000	      0.00000000	     -2.00536872	      1.68147922	     -5.24404200	     89.90125769	     -4.69102250	     16.51564797	     39.58946152	     75.89189571	      0.00000000	      0.00000000	     89.82670381	     -7.53600822	     19.78833614	     38.44551952	     79.30621524	      0.00000000	      0.00000000
